<svg width="36" height="36" viewBox="0 0 36 36" fill="none" xmlns="http://www.w3.org/2000/svg">
<path fill-rule="evenodd" clip-rule="evenodd" d="M18 5.40002C10.242 5.40002 3.60001 10.8594 3.60001 18C3.60001 21.6432 5.36041 24.885 8.09821 27.153C8.0731 28.2717 7.74864 29.3631 7.15861 30.3138C7.03627 30.5113 6.96698 30.7371 6.95743 30.9692C6.94789 31.2014 6.99841 31.432 7.10412 31.6389C7.20983 31.8458 7.36714 32.0219 7.56084 32.1502C7.75454 32.2785 7.97807 32.3546 8.20981 32.3712C10.7325 32.5602 13.241 31.854 15.2946 30.3768C16.1712 30.5244 17.0766 30.6 18 30.6C25.758 30.6 32.4 25.1406 32.4 18C32.4 10.8594 25.758 5.40002 18 5.40002ZM18 19.8C18.4774 19.8 18.9352 19.6104 19.2728 19.2728C19.6104 18.9353 19.8 18.4774 19.8 18C19.8 17.5226 19.6104 17.0648 19.2728 16.7272C18.9352 16.3897 18.4774 16.2 18 16.2C17.5226 16.2 17.0648 16.3897 16.7272 16.7272C16.3896 17.0648 16.2 17.5226 16.2 18C16.2 18.4774 16.3896 18.9353 16.7272 19.2728C17.0648 19.6104 17.5226 19.8 18 19.8ZM14.4 18C14.4 18.4774 14.2104 18.9353 13.8728 19.2728C13.5352 19.6104 13.0774 19.8 12.6 19.8C12.1226 19.8 11.6648 19.6104 11.3272 19.2728C10.9896 18.9353 10.8 18.4774 10.8 18C10.8 17.5226 10.9896 17.0648 11.3272 16.7272C11.6648 16.3897 12.1226 16.2 12.6 16.2C13.0774 16.2 13.5352 16.3897 13.8728 16.7272C14.2104 17.0648 14.4 17.5226 14.4 18ZM23.4 19.8C23.8774 19.8 24.3352 19.6104 24.6728 19.2728C25.0104 18.9353 25.2 18.4774 25.2 18C25.2 17.5226 25.0104 17.0648 24.6728 16.7272C24.3352 16.3897 23.8774 16.2 23.4 16.2C22.9226 16.2 22.4648 16.3897 22.1272 16.7272C21.7896 17.0648 21.6 17.5226 21.6 18C21.6 18.4774 21.7896 18.9353 22.1272 19.2728C22.4648 19.6104 22.9226 19.8 23.4 19.8Z" fill="#9AA1B9"/>
</svg>
