<svg width="36" height="36" viewBox="0 0 36 36" fill="none" xmlns="http://www.w3.org/2000/svg">
<path fill-rule="evenodd" clip-rule="evenodd" d="M15.273 4.49101C16.4844 2.39041 19.5156 2.39041 20.727 4.49101L32.031 24.066C33.2424 26.1666 31.725 28.791 29.3022 28.791H6.69599C4.27139 28.791 2.75579 26.1666 3.96899 24.066L15.273 4.49101ZM18 9.00001C18.358 9.00001 18.7014 9.14224 18.9546 9.39541C19.2078 9.64859 19.35 9.99197 19.35 10.35V16.65C19.35 17.0081 19.2078 17.3514 18.9546 17.6046C18.7014 17.8578 18.358 18 18 18C17.6419 18 17.2986 17.8578 17.0454 17.6046C16.7922 17.3514 16.65 17.0081 16.65 16.65V10.35C16.65 9.99197 16.7922 9.64859 17.0454 9.39541C17.2986 9.14224 17.6419 9.00001 18 9.00001ZM18 25.2C18.4774 25.2 18.9352 25.0104 19.2728 24.6728C19.6103 24.3352 19.8 23.8774 19.8 23.4C19.8 22.9226 19.6103 22.4648 19.2728 22.1272C18.9352 21.7897 18.4774 21.6 18 21.6C17.5226 21.6 17.0648 21.7897 16.7272 22.1272C16.3896 22.4648 16.2 22.9226 16.2 23.4C16.2 23.8774 16.3896 24.3352 16.7272 24.6728C17.0648 25.0104 17.5226 25.2 18 25.2Z" fill="#FFE1EA"/>
</svg>
