<svg width="36" height="36" viewBox="0 0 36 36" fill="none" xmlns="http://www.w3.org/2000/svg">
<path fill-rule="evenodd" clip-rule="evenodd" d="M24.75 6.71701V7.05751C26.6985 7.23569 28.639 7.4919 30.567 7.82551C30.7126 7.85073 30.8518 7.90437 30.9766 7.98337C31.1014 8.06237 31.2095 8.16519 31.2946 8.28595C31.3797 8.40671 31.4402 8.54306 31.4726 8.68719C31.505 8.83133 31.5087 8.98044 31.4835 9.12601C31.4583 9.27158 31.4047 9.41076 31.3257 9.5356C31.2467 9.66044 31.1438 9.7685 31.0231 9.85361C30.9023 9.93871 30.766 9.9992 30.6218 10.0316C30.4777 10.064 30.3286 10.0677 30.183 10.0425L29.8695 9.99001L28.362 29.595C28.2751 30.7254 27.7647 31.7813 26.9329 32.5516C26.1011 33.322 25.0092 33.75 23.8755 33.75H12.126C10.9923 33.75 9.90039 33.322 9.0686 32.5516C8.23681 31.7813 7.72643 30.7254 7.63951 29.595L6.13051 9.99001L5.81701 10.0425C5.67144 10.0677 5.52233 10.064 5.37819 10.0316C5.23405 9.9992 5.09771 9.93871 4.97695 9.85361C4.73306 9.68173 4.56743 9.42001 4.51651 9.12601C4.46559 8.83202 4.53354 8.52984 4.70542 8.28595C4.87729 8.04206 5.13902 7.87644 5.43301 7.82551C7.36091 7.4915 9.30148 7.23529 11.25 7.05751V6.71701C11.25 4.37101 13.0695 2.36701 15.474 2.29051C17.1581 2.23662 18.8434 2.23662 20.5275 2.29051C22.932 2.36701 24.75 4.37101 24.75 6.71701ZM15.546 4.53901C17.1821 4.48669 18.8194 4.48669 20.4555 4.53901C21.585 4.57501 22.5 5.52601 22.5 6.71701V6.88651C19.5028 6.70448 16.4972 6.70448 13.5 6.88651V6.71701C13.5 5.52601 14.4135 4.57501 15.546 4.53901ZM15.0135 13.4565C15.0078 13.3088 14.973 13.1636 14.9112 13.0293C14.8494 12.895 14.7618 12.7742 14.6532 12.6738C14.5447 12.5733 14.4175 12.4953 14.2788 12.444C14.1402 12.3927 13.9927 12.3693 13.845 12.375C13.6973 12.3807 13.5521 12.4155 13.4178 12.4773C13.2835 12.5391 13.1627 12.6268 13.0623 12.7353C12.9618 12.8438 12.8838 12.971 12.8325 13.1097C12.7812 13.2484 12.7578 13.3958 12.7635 13.5435L13.284 27.0435C13.2955 27.3417 13.4251 27.6231 13.6441 27.8257C13.7525 27.9261 13.8796 28.0041 14.0182 28.0553C14.1568 28.1066 14.3041 28.13 14.4518 28.1243C14.5994 28.1186 14.7445 28.0838 14.8787 28.022C15.0129 27.9603 15.1336 27.8727 15.234 27.7642C15.3343 27.6558 15.4124 27.5286 15.4636 27.3901C15.5148 27.2515 15.5382 27.1042 15.5325 26.9565L15.0135 13.4565ZM23.2335 13.5435C23.2445 13.3929 23.2251 13.2417 23.1764 13.0988C23.1277 12.9559 23.0508 12.8242 22.9501 12.7117C22.8495 12.5991 22.7272 12.508 22.5906 12.4437C22.454 12.3794 22.3059 12.3432 22.155 12.3374C22.0042 12.3316 21.8537 12.3562 21.7125 12.4097C21.5713 12.4632 21.4424 12.5447 21.3334 12.6491C21.2243 12.7535 21.1374 12.8788 21.0778 13.0175C21.0182 13.1562 20.9872 13.3055 20.9865 13.4565L20.466 26.9565C20.4545 27.2549 20.5619 27.5456 20.7648 27.7648C20.9676 27.9839 21.2491 28.1135 21.5475 28.125C21.8459 28.1366 22.1366 28.0291 22.3557 27.8263C22.5749 27.6234 22.7045 27.3419 22.716 27.0435L23.2335 13.5435Z" fill="#FF6390"/>
</svg>
