<svg width="38" height="36" viewBox="0 0 38 36" fill="none" xmlns="http://www.w3.org/2000/svg">
<path d="M13.2604 24.6058L13.2535 24.6017L13.2274 24.5879C12.6853 24.293 12.153 23.9806 11.6312 23.6511C10.3871 22.8683 9.2017 21.996 8.08432 21.0411C5.55674 18.8611 2.74756 15.5903 2.74756 11.6726C2.74768 10.3943 3.14407 9.14751 3.88215 8.10386C4.62024 7.06021 5.66371 6.27104 6.86889 5.84501C8.07407 5.41898 9.38169 5.37704 10.6117 5.72497C11.8417 6.0729 12.9336 6.79358 13.737 7.78779C14.5405 6.79358 15.6324 6.0729 16.8624 5.72497C18.0924 5.37704 19.4 5.41898 20.6052 5.84501C21.8104 6.27104 22.8538 7.06021 23.5919 8.10386C24.33 9.14751 24.7264 10.3943 24.7265 11.6726C24.7265 15.5903 21.9187 18.8611 19.3897 21.0411C17.8022 22.3975 16.0787 23.5861 14.2467 24.5879L14.2206 24.6017L14.2137 24.6058H14.211C14.065 24.6831 13.9024 24.7237 13.7372 24.7239C13.572 24.7241 13.4093 24.6841 13.2631 24.6072L13.2604 24.6058Z" fill="#A62D82"/>
<path fill-rule="evenodd" clip-rule="evenodd" d="M24.1338 13.2277C22.3718 13.2277 20.682 13.9276 19.4362 15.1735C18.1903 16.4194 17.4903 18.1092 17.4903 19.8711C17.4903 21.6331 18.1903 23.3228 19.4362 24.5687C20.682 25.8146 22.3718 26.5145 24.1338 26.5145C25.8957 26.5145 27.5855 25.8146 28.8314 24.5687C30.0773 23.3228 30.7772 21.6331 30.7772 19.8711C30.7772 18.1092 30.0773 16.4194 28.8314 15.1735C27.5855 13.9276 25.8957 13.2277 24.1338 13.2277ZM15.6785 19.8711C15.6786 18.5191 16.003 17.1868 16.6243 15.986C17.2457 14.7852 18.1459 13.7509 19.2496 12.9699C20.3532 12.1889 21.6281 11.684 22.9672 11.4974C24.3063 11.3109 25.6706 11.4482 26.9457 11.8978C28.2207 12.3475 29.3694 13.0963 30.2953 14.0816C31.2212 15.0668 31.8973 16.2598 32.2669 17.5603C32.6365 18.8608 32.6889 20.231 32.4196 21.556C32.1503 22.8809 31.5672 24.1219 30.7192 25.175L34.7391 29.1961C34.8281 29.279 34.8995 29.379 34.949 29.4901C34.9985 29.6013 35.0251 29.7212 35.0273 29.8429C35.0294 29.9645 35.007 30.0853 34.9615 30.1981C34.9159 30.3109 34.8481 30.4134 34.7621 30.4994C34.676 30.5855 34.5736 30.6533 34.4608 30.6988C34.348 30.7444 34.2271 30.7668 34.1055 30.7646C33.9839 30.7625 33.8639 30.7359 33.7528 30.6863C33.6417 30.6368 33.5416 30.5654 33.4587 30.4764L29.4376 26.4566C28.1954 27.4572 26.6954 28.0859 25.111 28.2703C23.5265 28.4546 21.9223 28.187 20.4834 27.4984C19.0446 26.8097 17.83 25.7281 16.9797 24.3785C16.1295 23.0289 15.6784 21.4662 15.6785 19.8711Z" fill="#DF89C6"/>
</svg>
