<svg width="26" height="76" viewBox="0 0 26 76" fill="none" xmlns="http://www.w3.org/2000/svg">
<path d="M10 34.0001C9.46957 34.0001 8.96086 33.7894 8.58579 33.4143C8.21071 33.0392 8 32.5305 8 32.0001C8 31.4697 8.21071 30.961 8.58579 30.5859C8.96086 30.2108 9.46957 30.0001 10 30.0001C10.5304 30.0001 11.0391 30.2108 11.4142 30.5859C11.7893 30.961 12 31.4697 12 32.0001C12 32.5305 11.7893 33.0392 11.4142 33.4143C11.0391 33.7894 10.5304 34.0001 10 34.0001ZM10 40.0001C9.46957 40.0001 8.96086 39.7894 8.58579 39.4143C8.21071 39.0392 8 38.5305 8 38.0001C8 37.4697 8.21071 36.961 8.58579 36.5859C8.96086 36.2108 9.46957 36.0001 10 36.0001C10.5304 36.0001 11.0391 36.2108 11.4142 36.5859C11.7893 36.961 12 37.4697 12 38.0001C12 38.5305 11.7893 39.0392 11.4142 39.4143C11.0391 39.7894 10.5304 40.0001 10 40.0001ZM10 46.0001C9.46957 46.0001 8.96086 45.7894 8.58579 45.4143C8.21071 45.0392 8 44.5305 8 44.0001C8 43.4697 8.21071 42.961 8.58579 42.5859C8.96086 42.2108 9.46957 42.0001 10 42.0001C10.5304 42.0001 11.0391 42.2108 11.4142 42.5859C11.7893 42.961 12 43.4697 12 44.0001C12 44.5305 11.7893 45.0392 11.4142 45.4143C11.0391 45.7894 10.5304 46.0001 10 46.0001Z" fill="#C8CCDB"/>
<path d="M16 34.0001C15.4696 34.0001 14.9609 33.7894 14.5858 33.4143C14.2107 33.0392 14 32.5305 14 32.0001C14 31.4697 14.2107 30.961 14.5858 30.5859C14.9609 30.2108 15.4696 30.0001 16 30.0001C16.5304 30.0001 17.0391 30.2108 17.4142 30.5859C17.7893 30.961 18 31.4697 18 32.0001C18 32.5305 17.7893 33.0392 17.4142 33.4143C17.0391 33.7894 16.5304 34.0001 16 34.0001ZM16 40.0001C15.4696 40.0001 14.9609 39.7894 14.5858 39.4143C14.2107 39.0392 14 38.5305 14 38.0001C14 37.4697 14.2107 36.961 14.5858 36.5859C14.9609 36.2108 15.4696 36.0001 16 36.0001C16.5304 36.0001 17.0391 36.2108 17.4142 36.5859C17.7893 36.961 18 37.4697 18 38.0001C18 38.5305 17.7893 39.0392 17.4142 39.4143C17.0391 39.7894 16.5304 40.0001 16 40.0001ZM16 46.0001C15.4696 46.0001 14.9609 45.7894 14.5858 45.4143C14.2107 45.0392 14 44.5305 14 44.0001C14 43.4697 14.2107 42.961 14.5858 42.5859C14.9609 42.2108 15.4696 42.0001 16 42.0001C16.5304 42.0001 17.0391 42.2108 17.4142 42.5859C17.7893 42.961 18 43.4697 18 44.0001C18 44.5305 17.7893 45.0392 17.4142 45.4143C17.0391 45.7894 16.5304 46.0001 16 46.0001Z" fill="#C8CCDB"/>
</svg>
