<svg width="36" height="36" viewBox="0 0 36 36" fill="none" xmlns="http://www.w3.org/2000/svg">
<path d="M32.5965 3.40349C31.8581 2.66521 30.8567 2.25046 29.8125 2.25046C28.7683 2.25046 27.7669 2.66521 27.0285 3.40349L25.293 5.13899L30.861 10.707L32.5965 8.97149C33.3348 8.23309 33.7495 7.23167 33.7495 6.18749C33.7495 5.14332 33.3348 4.1419 32.5965 3.40349ZM29.2695 12.2985L23.7015 6.73049L11.1015 19.3305C10.1758 20.2558 9.49528 21.3972 9.12152 22.6515L7.92152 26.679C7.86358 26.8733 7.85926 27.0797 7.90901 27.2764C7.95876 27.473 8.06073 27.6525 8.20414 27.7959C8.34754 27.9393 8.52705 28.0412 8.72365 28.091C8.92026 28.1407 9.12666 28.1364 9.32102 28.0785L13.3485 26.8785C14.6029 26.5047 15.7443 25.8242 16.6695 24.8985L29.2695 12.2985Z" fill="#FF6390"/>
<path d="M7.875 7.875C6.68153 7.875 5.53693 8.34911 4.69302 9.19302C3.84911 10.0369 3.375 11.1815 3.375 12.375V28.125C3.375 29.3185 3.84911 30.4631 4.69302 31.307C5.53693 32.1509 6.68153 32.625 7.875 32.625H23.625C24.8185 32.625 25.9631 32.1509 26.807 31.307C27.6509 30.4631 28.125 29.3185 28.125 28.125V20.25C28.125 19.9516 28.0065 19.6655 27.7955 19.4545C27.5845 19.2435 27.2984 19.125 27 19.125C26.7016 19.125 26.4155 19.2435 26.2045 19.4545C25.9935 19.6655 25.875 19.9516 25.875 20.25V28.125C25.875 28.7217 25.6379 29.294 25.216 29.716C24.794 30.1379 24.2217 30.375 23.625 30.375H7.875C7.27826 30.375 6.70597 30.1379 6.28401 29.716C5.86205 29.294 5.625 28.7217 5.625 28.125V12.375C5.625 11.7783 5.86205 11.206 6.28401 10.784C6.70597 10.3621 7.27826 10.125 7.875 10.125H15.75C16.0484 10.125 16.3345 10.0065 16.5455 9.7955C16.7565 9.58452 16.875 9.29837 16.875 9C16.875 8.70163 16.7565 8.41548 16.5455 8.2045C16.3345 7.99353 16.0484 7.875 15.75 7.875H7.875Z" fill="#FF6390"/>
</svg>
