<svg width="48" height="48" viewBox="0 0 48 48" fill="none" xmlns="http://www.w3.org/2000/svg">
<rect width="48" height="48" rx="24" fill="#A62D82"/>
<path d="M24 16.3608C19.781 16.3608 16.3611 19.7808 16.3611 23.9997C16.3611 27.8123 19.1546 30.9725 22.8068 31.5462V26.2074H20.8665V23.9997H22.8068V22.3169C22.8068 20.4026 23.9465 19.3454 25.692 19.3454C26.5277 19.3454 27.4016 19.4943 27.4016 19.4943V21.3735H26.4391C25.4896 21.3735 25.1939 21.9624 25.1939 22.5667V23.9997H27.3122L26.9738 26.2074H25.1939V31.5462C28.8453 30.9733 31.6389 27.8115 31.6389 23.9997C31.6389 19.7808 28.2189 16.3608 24 16.3608Z" fill="white"/>
</svg>
