<svg width="36" height="36" viewBox="0 0 36 36" fill="none" xmlns="http://www.w3.org/2000/svg">
<path d="M18 22.5C19.1935 22.5 20.3381 22.0259 21.182 21.182C22.0259 20.3381 22.5 19.1935 22.5 18C22.5 16.8065 22.0259 15.6619 21.182 14.818C20.3381 13.9741 19.1935 13.5 18 13.5C16.8065 13.5 15.6619 13.9741 14.818 14.818C13.9741 15.6619 13.5 16.8065 13.5 18C13.5 19.1935 13.9741 20.3381 14.818 21.182C15.6619 22.0259 16.8065 22.5 18 22.5Z" fill="#9AA1B9"/>
<path fill-rule="evenodd" clip-rule="evenodd" d="M1.1952 19.062C0.930784 18.375 0.930784 17.6143 1.1952 16.9272C2.50421 13.5333 4.81041 10.6154 7.81012 8.55778C10.8098 6.50014 14.3624 5.39923 18 5.40002C25.6626 5.40002 32.2074 10.188 34.8048 16.938C35.0694 17.6238 35.0676 18.3852 34.8048 19.0728C33.4958 22.4667 31.1896 25.3846 28.1899 27.4423C25.1902 29.4999 21.6376 30.6008 18 30.6C10.3374 30.6 3.7926 25.812 1.1952 19.062ZM25.2 18C25.2 19.9096 24.4414 21.7409 23.0912 23.0912C21.7409 24.4415 19.9096 25.2 18 25.2C16.0904 25.2 14.2591 24.4415 12.9088 23.0912C11.5586 21.7409 10.8 19.9096 10.8 18C10.8 16.0905 11.5586 14.2591 12.9088 12.9089C14.2591 11.5586 16.0904 10.8 18 10.8C19.9096 10.8 21.7409 11.5586 23.0912 12.9089C24.4414 14.2591 25.2 16.0905 25.2 18Z" fill="#9AA1B9"/>
</svg>
