<svg width="48" height="48" viewBox="0 0 48 48" fill="none" xmlns="http://www.w3.org/2000/svg">
<rect width="48" height="48" rx="24" fill="#A62D82"/>
<path d="M24 16.3608C26.0755 16.3608 26.3344 16.3685 27.1487 16.4067C27.9623 16.4449 28.5161 16.5724 29.0034 16.7619C29.5076 16.9559 29.9323 17.2187 30.3571 17.6426C30.7455 18.0245 31.0461 18.4864 31.2378 18.9963C31.4265 19.4829 31.5548 20.0374 31.593 20.851C31.6289 21.6653 31.6389 21.9242 31.6389 23.9997C31.6389 26.0752 31.6312 26.3342 31.593 27.1485C31.5548 27.962 31.4265 28.5158 31.2378 29.0032C31.0466 29.5133 30.746 29.9753 30.3571 30.3568C29.9751 30.7451 29.5132 31.0457 29.0034 31.2376C28.5168 31.4263 27.9623 31.5546 27.1487 31.5928C26.3344 31.6287 26.0755 31.6386 24 31.6386C21.9245 31.6386 21.6655 31.631 20.8512 31.5928C20.0377 31.5546 19.4839 31.4263 18.9965 31.2376C18.4865 31.0462 18.0245 30.7456 17.6429 30.3568C17.2544 29.975 16.9538 29.5131 16.7621 29.0032C16.5727 28.5166 16.4451 27.962 16.4069 27.1485C16.371 26.3342 16.3611 26.0752 16.3611 23.9997C16.3611 21.9242 16.3687 21.6653 16.4069 20.851C16.4451 20.0367 16.5727 19.4836 16.7621 18.9963C16.9533 18.4861 17.2539 18.0241 17.6429 17.6426C18.0246 17.254 18.4866 16.9534 18.9965 16.7619C19.4839 16.5724 20.0369 16.4449 20.8512 16.4067C21.6655 16.3708 21.9245 16.3608 24 16.3608ZM24 20.1803C22.987 20.1803 22.0155 20.5827 21.2992 21.299C20.5829 22.0153 20.1805 22.9867 20.1805 23.9997C20.1805 25.0127 20.5829 25.9842 21.2992 26.7005C22.0155 27.4168 22.987 27.8192 24 27.8192C25.013 27.8192 25.9844 27.4168 26.7007 26.7005C27.417 25.9842 27.8194 25.0127 27.8194 23.9997C27.8194 22.9867 27.417 22.0153 26.7007 21.299C25.9844 20.5827 25.013 20.1803 24 20.1803ZM28.9653 19.9893C28.9653 19.7361 28.8647 19.4932 28.6856 19.3141C28.5065 19.1351 28.2636 19.0345 28.0104 19.0345C27.7571 19.0345 27.5143 19.1351 27.3352 19.3141C27.1561 19.4932 27.0555 19.7361 27.0555 19.9893C27.0555 20.2426 27.1561 20.4854 27.3352 20.6645C27.5143 20.8436 27.7571 20.9442 28.0104 20.9442C28.2636 20.9442 28.5065 20.8436 28.6856 20.6645C28.8647 20.4854 28.9653 20.2426 28.9653 19.9893ZM24 21.7081C24.6078 21.7081 25.1907 21.9495 25.6204 22.3793C26.0502 22.809 26.2916 23.3919 26.2916 23.9997C26.2916 24.6075 26.0502 25.1904 25.6204 25.6202C25.1907 26.05 24.6078 26.2914 24 26.2914C23.3922 26.2914 22.8093 26.05 22.3795 25.6202C21.9497 25.1904 21.7083 24.6075 21.7083 23.9997C21.7083 23.3919 21.9497 22.809 22.3795 22.3793C22.8093 21.9495 23.3922 21.7081 24 21.7081Z" fill="white"/>
</svg>
