<svg width="36" height="36" viewBox="0 0 36 36" fill="none" xmlns="http://www.w3.org/2000/svg">
<path fill-rule="evenodd" clip-rule="evenodd" d="M2.25 9C2.25 8.10489 2.60558 7.24645 3.23851 6.61351C3.87145 5.98058 4.72989 5.625 5.625 5.625H30.375C31.2701 5.625 32.1285 5.98058 32.7615 6.61351C33.3944 7.24645 33.75 8.10489 33.75 9V27C33.75 27.8951 33.3944 28.7535 32.7615 29.3865C32.1285 30.0194 31.2701 30.375 30.375 30.375H5.625C4.72989 30.375 3.87145 30.0194 3.23851 29.3865C2.60558 28.7535 2.25 27.8951 2.25 27V9ZM4.5 24.09V27C4.5 27.621 5.004 28.125 5.625 28.125H30.375C30.6734 28.125 30.9595 28.0065 31.1705 27.7955C31.3815 27.5845 31.5 27.2984 31.5 27V24.09L27.465 20.0565C27.0431 19.6351 26.4713 19.3985 25.875 19.3985C25.2787 19.3985 24.7069 19.6351 24.285 20.0565L22.965 21.375L24.42 22.83C24.5305 22.933 24.6192 23.0572 24.6807 23.1952C24.7422 23.3332 24.7752 23.4822 24.7779 23.6332C24.7806 23.7843 24.7528 23.9343 24.6962 24.0744C24.6396 24.2145 24.5554 24.3417 24.4486 24.4486C24.3417 24.5554 24.2145 24.6396 24.0744 24.6962C23.9343 24.7528 23.7843 24.7806 23.6332 24.7779C23.4822 24.7752 23.3332 24.7422 23.1952 24.6807C23.0572 24.6192 22.933 24.5305 22.83 24.42L15.09 16.6815C14.6681 16.2601 14.0963 16.0235 13.5 16.0235C12.9037 16.0235 12.3319 16.2601 11.91 16.6815L4.5 24.0915V24.09ZM19.6875 12.375C19.6875 11.9274 19.8653 11.4982 20.1818 11.1818C20.4982 10.8653 20.9274 10.6875 21.375 10.6875C21.8226 10.6875 22.2518 10.8653 22.5682 11.1818C22.8847 11.4982 23.0625 11.9274 23.0625 12.375C23.0625 12.8226 22.8847 13.2518 22.5682 13.5682C22.2518 13.8847 21.8226 14.0625 21.375 14.0625C20.9274 14.0625 20.4982 13.8847 20.1818 13.5682C19.8653 13.2518 19.6875 12.8226 19.6875 12.375Z" fill="#9AA1B9"/>
</svg>
