<svg width="16" height="16" viewBox="0 0 16 16" fill="none" xmlns="http://www.w3.org/2000/svg">
<g id="icon">
<path id="Vector" fill-rule="evenodd" clip-rule="evenodd" d="M7.75044 15.1464L7.75284 15.1472C7.91044 15.216 7.99844 15.2 7.99844 15.2C7.99844 15.2 8.08644 15.216 8.24484 15.1472L8.24644 15.1464L8.25124 15.144L8.26564 15.1376C8.34158 15.1023 8.41654 15.065 8.49044 15.0256C8.63924 14.9488 8.84724 14.8336 9.09604 14.6792C9.59204 14.372 10.252 13.9064 10.9152 13.2672C12.24 11.9904 13.5984 9.99438 13.5984 7.19998C13.5984 6.46457 13.4536 5.73637 13.1722 5.05695C12.8907 4.37753 12.4782 3.76019 11.9582 3.24018C11.4382 2.72017 10.8209 2.30768 10.1415 2.02625C9.46204 1.74482 8.73384 1.59998 7.99844 1.59998C7.26304 1.59998 6.53483 1.74482 5.85541 2.02625C5.17599 2.30768 4.55865 2.72017 4.03864 3.24018C3.51863 3.76019 3.10614 4.37753 2.82471 5.05695C2.54329 5.73637 2.39844 6.46457 2.39844 7.19998C2.39844 9.99358 3.75684 11.9904 5.08244 13.2672C5.63744 13.8002 6.24692 14.2735 6.90084 14.6792C7.15411 14.8364 7.41467 14.9817 7.68164 15.1144L7.73124 15.1376L7.74564 15.144L7.75044 15.1464ZM7.99844 8.99998C8.47583 8.99998 8.93366 8.81033 9.27123 8.47277C9.6088 8.1352 9.79844 7.67737 9.79844 7.19998C9.79844 6.72259 9.6088 6.26475 9.27123 5.92718C8.93366 5.58962 8.47583 5.39998 7.99844 5.39998C7.52105 5.39998 7.06321 5.58962 6.72565 5.92718C6.38808 6.26475 6.19844 6.72259 6.19844 7.19998C6.19844 7.67737 6.38808 8.1352 6.72565 8.47277C7.06321 8.81033 7.52105 8.99998 7.99844 8.99998Z" fill="#FFB1C8"/>
</g>
</svg>
