<svg width="36" height="36" viewBox="0 0 36 36" fill="none" xmlns="http://www.w3.org/2000/svg">
<path d="M19.5 23.9996V25.4996C19.5 26.6931 19.0259 27.8377 18.182 28.6816C17.3381 29.5255 16.1935 29.9996 15 29.9996H9C7.80653 29.9996 6.66193 29.5255 5.81802 28.6816C4.97411 27.8377 4.5 26.6931 4.5 25.4996V10.4996C4.5 9.30616 4.97411 8.16157 5.81802 7.31765C6.66193 6.47374 7.80653 5.99963 9 5.99963H15C16.1935 5.99963 17.3381 6.47374 18.182 7.31765C19.0259 8.16157 19.5 9.30616 19.5 10.4996V11.9996M25.5 23.9996L31.5 17.9996L25.5 23.9996ZM31.5 17.9996L25.5 11.9996L31.5 17.9996ZM31.5 17.9996H10.5H31.5Z" stroke="#9AA1B9" stroke-width="2" stroke-linecap="round" stroke-linejoin="round"/>
</svg>
