<svg width="158" height="32" viewBox="0 0 158 32" fill="none" xmlns="http://www.w3.org/2000/svg">
<g clip-path="url(#clip0_46_1176)">
<path d="M22.0136 20.155C22.2506 20.3046 22.4923 20.4465 22.7385 20.5804L22.7384 20.5805L22.7436 20.5831L22.751 20.5876L22.7656 20.5949C22.9001 20.6646 23.0493 20.7008 23.2008 20.7006C23.3054 20.7004 23.4089 20.6829 23.5071 20.649H23.5467L23.6555 20.5837L23.6625 20.5799C24.493 20.1258 25.2742 19.587 25.9938 18.9721L25.9938 18.9721L25.9955 18.9707C27.1189 18.0023 28.5 16.4447 28.5 14.5V14.5C28.5 13.8382 28.2948 13.1928 27.9127 12.6526C27.5306 12.1123 26.9904 11.7038 26.3665 11.4832C25.7427 11.2627 25.0658 11.241 24.429 11.4211C23.9732 11.55 23.554 11.7778 23.2 12.0857C22.846 11.7778 22.4269 11.55 21.971 11.4211C21.3343 11.241 20.6574 11.2627 20.0335 11.4832C19.4096 11.7038 18.8694 12.1123 18.4874 12.6526C18.1053 13.1928 17.9001 13.8382 17.9 14.5V14.5C17.9 16.4448 19.2818 18.0023 20.4045 18.9706L20.4062 18.9721C20.9126 19.4049 21.4498 19.8002 22.0136 20.155ZM22.0136 20.155C22.0135 20.1549 22.0134 20.1549 22.0133 20.1548L22.2802 19.7321L22.0139 20.1552C22.0138 20.1551 22.0137 20.1551 22.0136 20.155Z" fill="#FF1659" stroke="white"/>
</g>
<g clip-path="url(#clip1_46_1176)">
<path d="M29.2136 20.155C29.4506 20.3046 29.6923 20.4465 29.9385 20.5804L29.9385 20.5805L29.9436 20.5831L29.951 20.5876L29.9656 20.5949C30.1001 20.6646 30.2494 20.7008 30.4008 20.7006C30.5054 20.7004 30.6089 20.6829 30.7072 20.649H30.7468L30.8555 20.5837L30.8625 20.5799C31.693 20.1258 32.4742 19.587 33.1938 18.9721L33.1938 18.9721L33.1955 18.9707C34.3189 18.0023 35.7 16.4447 35.7 14.5V14.5C35.7 13.8382 35.4948 13.1928 35.1127 12.6526C34.7306 12.1123 34.1904 11.7038 33.5666 11.4832C32.9427 11.2627 32.2658 11.241 31.629 11.4211C31.1732 11.55 30.754 11.7778 30.4 12.0857C30.046 11.7778 29.6269 11.55 29.171 11.4211C28.5343 11.241 27.8574 11.2627 27.2335 11.4832C26.6096 11.7038 26.0695 12.1123 25.6874 12.6526C25.3053 13.1928 25.1001 13.8382 25.1 14.5V14.5C25.1 16.4448 26.4818 18.0023 27.6045 18.9706L27.6062 18.9721C28.1126 19.4049 28.6498 19.8002 29.2136 20.155ZM29.2136 20.155C29.2135 20.1549 29.2134 20.1549 29.2133 20.1548L29.4802 19.7321L29.214 20.1552C29.2138 20.1551 29.2137 20.1551 29.2136 20.155Z" fill="#FF1659" stroke="white"/>
</g>
<path d="M42.688 21.144C42.3254 21.144 42.048 21.0427 41.856 20.84C41.664 20.6373 41.568 20.3547 41.568 19.992V10.728C41.568 10.3653 41.6694 10.0827 41.872 9.88C42.0854 9.67733 42.3734 9.576 42.736 9.576C43.056 9.576 43.3067 9.64 43.488 9.768C43.68 9.88533 43.856 10.0933 44.016 10.392L47.712 17.144H47.168L50.864 10.392C51.024 10.0933 51.1947 9.88533 51.376 9.768C51.568 9.64 51.8187 9.576 52.128 9.576C52.4907 9.576 52.768 9.67733 52.96 9.88C53.1627 10.0827 53.264 10.3653 53.264 10.728V19.992C53.264 20.3547 53.168 20.6373 52.976 20.84C52.784 21.0427 52.5067 21.144 52.144 21.144C51.7814 21.144 51.4987 21.0427 51.296 20.84C51.104 20.6373 51.008 20.3547 51.008 19.992V13.512H51.36L48.384 18.84C48.256 19.0427 48.1174 19.1973 47.968 19.304C47.8294 19.4 47.6427 19.448 47.408 19.448C47.1734 19.448 46.9814 19.3947 46.832 19.288C46.6827 19.1813 46.5494 19.032 46.432 18.84L43.424 13.496H43.808V19.992C43.808 20.3547 43.712 20.6373 43.52 20.84C43.3387 21.0427 43.0614 21.144 42.688 21.144ZM59.4236 21.176C58.4956 21.176 57.6956 21.0107 57.0236 20.68C56.3623 20.3387 55.8503 19.864 55.4876 19.256C55.1356 18.6373 54.9596 17.912 54.9596 17.08C54.9596 16.2693 55.1303 15.56 55.4716 14.952C55.813 14.3333 56.2876 13.8533 56.8956 13.512C57.5143 13.16 58.213 12.984 58.9916 12.984C59.557 12.984 60.069 13.08 60.5276 13.272C60.9863 13.4533 61.381 13.72 61.7116 14.072C62.0423 14.4133 62.293 14.8347 62.4636 15.336C62.6343 15.8267 62.7197 16.376 62.7197 16.984C62.7197 17.1867 62.6557 17.3413 62.5276 17.448C62.3996 17.544 62.213 17.592 61.9676 17.592H56.9436V16.344H60.9756L60.7196 16.568C60.7196 16.1307 60.6556 15.768 60.5276 15.48C60.3996 15.1813 60.213 14.9573 59.9676 14.808C59.733 14.6587 59.4396 14.584 59.0876 14.584C58.693 14.584 58.357 14.6747 58.0796 14.856C57.8023 15.0373 57.589 15.2987 57.4396 15.64C57.2903 15.9813 57.2156 16.392 57.2156 16.872V17C57.2156 17.8107 57.4023 18.408 57.7756 18.792C58.1596 19.176 58.725 19.368 59.4716 19.368C59.7276 19.368 60.021 19.336 60.3516 19.272C60.6823 19.208 60.9916 19.1067 61.2796 18.968C61.525 18.8507 61.7436 18.8133 61.9356 18.856C62.1276 18.888 62.277 18.9733 62.3836 19.112C62.4903 19.2507 62.549 19.4107 62.5596 19.592C62.581 19.7733 62.5436 19.9547 62.4476 20.136C62.3516 20.3067 62.1916 20.4507 61.9676 20.568C61.605 20.7707 61.1943 20.92 60.7356 21.016C60.2876 21.1227 59.8503 21.176 59.4236 21.176ZM65.3729 21.144C64.9676 21.144 64.6582 21.0373 64.4449 20.824C64.2316 20.6107 64.1249 20.3067 64.1249 19.912V14.232C64.1249 13.8373 64.2262 13.5387 64.4289 13.336C64.6422 13.1227 64.9356 13.016 65.3089 13.016C65.6929 13.016 65.9862 13.1227 66.1889 13.336C66.3916 13.5387 66.4929 13.8373 66.4929 14.232V15.064H66.3329C66.4609 14.424 66.7436 13.928 67.1809 13.576C67.6182 13.224 68.1836 13.0267 68.8769 12.984C69.1436 12.9627 69.3462 13.032 69.4849 13.192C69.6342 13.3413 69.7142 13.592 69.7249 13.944C69.7462 14.2747 69.6769 14.536 69.5169 14.728C69.3676 14.92 69.1116 15.0373 68.7489 15.08L68.3809 15.112C67.7729 15.1653 67.3196 15.3413 67.0209 15.64C66.7329 15.9387 66.5889 16.3707 66.5889 16.936V19.912C66.5889 20.3067 66.4822 20.6107 66.2689 20.824C66.0662 21.0373 65.7676 21.144 65.3729 21.144ZM71.9666 21.144C71.5613 21.144 71.252 21.0373 71.0386 20.824C70.8253 20.6107 70.7186 20.3067 70.7186 19.912V14.232C70.7186 13.8373 70.82 13.5387 71.0226 13.336C71.236 13.1227 71.5293 13.016 71.9026 13.016C72.2866 13.016 72.58 13.1227 72.7826 13.336C72.9853 13.5387 73.0866 13.8373 73.0866 14.232V15.064H72.9266C73.0546 14.424 73.3373 13.928 73.7746 13.576C74.212 13.224 74.7773 13.0267 75.4706 12.984C75.7373 12.9627 75.94 13.032 76.0786 13.192C76.228 13.3413 76.308 13.592 76.3186 13.944C76.34 14.2747 76.2706 14.536 76.1106 14.728C75.9613 14.92 75.7053 15.0373 75.3426 15.08L74.9746 15.112C74.3666 15.1653 73.9133 15.3413 73.6146 15.64C73.3266 15.9387 73.1826 16.3707 73.1826 16.936V19.912C73.1826 20.3067 73.076 20.6107 72.8626 20.824C72.66 21.0373 72.3613 21.144 71.9666 21.144ZM79.9408 24.024C79.6634 24.024 79.4341 23.9493 79.2528 23.8C79.0714 23.6507 78.9648 23.4533 78.9328 23.208C78.9008 22.9733 78.9434 22.7227 79.0608 22.456L80.1328 20.088V21.08L77.3008 14.584C77.1941 14.3067 77.1568 14.0507 77.1888 13.816C77.2314 13.5707 77.3488 13.3787 77.5408 13.24C77.7434 13.0907 78.0208 13.016 78.3728 13.016C78.6608 13.016 78.8901 13.0853 79.0608 13.224C79.2421 13.352 79.4074 13.6027 79.5568 13.976L81.4448 18.776H80.9328L82.8848 13.96C83.0341 13.5973 83.1994 13.352 83.3808 13.224C83.5728 13.0853 83.8288 13.016 84.1488 13.016C84.4261 13.016 84.6448 13.0907 84.8048 13.24C84.9754 13.3787 85.0768 13.5653 85.1088 13.8C85.1514 14.0347 85.1088 14.2907 84.9808 14.568L81.2208 23.096C81.0608 23.4587 80.8794 23.704 80.6768 23.832C80.4848 23.96 80.2394 24.024 79.9408 24.024ZM92.1568 21.144C91.7941 21.144 91.5168 21.0427 91.3248 20.84C91.1328 20.6373 91.0368 20.3547 91.0368 19.992V10.728C91.0368 10.3653 91.1381 10.0827 91.3408 9.88C91.5541 9.67733 91.8421 9.576 92.2048 9.576C92.5248 9.576 92.7754 9.64 92.9568 9.768C93.1488 9.88533 93.3248 10.0933 93.4848 10.392L97.1808 17.144H96.6368L100.333 10.392C100.493 10.0933 100.663 9.88533 100.845 9.768C101.037 9.64 101.287 9.576 101.597 9.576C101.959 9.576 102.237 9.67733 102.429 9.88C102.631 10.0827 102.733 10.3653 102.733 10.728V19.992C102.733 20.3547 102.637 20.6373 102.445 20.84C102.253 21.0427 101.975 21.144 101.613 21.144C101.25 21.144 100.967 21.0427 100.765 20.84C100.573 20.6373 100.477 20.3547 100.477 19.992V13.512H100.829L97.8528 18.84C97.7248 19.0427 97.5861 19.1973 97.4368 19.304C97.2981 19.4 97.1114 19.448 96.8768 19.448C96.6421 19.448 96.4501 19.3947 96.3008 19.288C96.1514 19.1813 96.0181 19.032 95.9008 18.84L92.8928 13.496H93.2768V19.992C93.2768 20.3547 93.1808 20.6373 92.9888 20.84C92.8074 21.0427 92.5301 21.144 92.1568 21.144ZM107.468 21.176C106.892 21.176 106.375 21.064 105.916 20.84C105.458 20.616 105.1 20.312 104.844 19.928C104.588 19.544 104.46 19.112 104.46 18.632C104.46 18.056 104.61 17.6027 104.908 17.272C105.207 16.9307 105.692 16.6907 106.364 16.552C107.036 16.4027 107.927 16.328 109.036 16.328H109.884V17.576H109.052C108.508 17.576 108.066 17.608 107.724 17.672C107.394 17.7253 107.154 17.8213 107.004 17.96C106.866 18.0987 106.796 18.2907 106.796 18.536C106.796 18.8347 106.898 19.08 107.1 19.272C107.314 19.464 107.618 19.56 108.012 19.56C108.322 19.56 108.594 19.4907 108.828 19.352C109.074 19.2027 109.266 19.0053 109.404 18.76C109.543 18.504 109.612 18.216 109.612 17.896V16.056C109.612 15.5867 109.506 15.256 109.292 15.064C109.079 14.8613 108.716 14.76 108.204 14.76C107.916 14.76 107.602 14.7973 107.26 14.872C106.93 14.936 106.562 15.048 106.156 15.208C105.922 15.3147 105.714 15.3413 105.532 15.288C105.351 15.224 105.212 15.1173 105.116 14.968C105.02 14.808 104.972 14.6373 104.972 14.456C104.972 14.264 105.026 14.0827 105.132 13.912C105.239 13.7307 105.415 13.5973 105.66 13.512C106.162 13.3093 106.631 13.1707 107.068 13.096C107.516 13.0213 107.927 12.984 108.3 12.984C109.122 12.984 109.794 13.1067 110.316 13.352C110.85 13.5867 111.25 13.9547 111.516 14.456C111.783 14.9467 111.916 15.5813 111.916 16.36V19.912C111.916 20.3067 111.82 20.6107 111.628 20.824C111.436 21.0373 111.159 21.144 110.796 21.144C110.434 21.144 110.151 21.0373 109.948 20.824C109.756 20.6107 109.66 20.3067 109.66 19.912V19.32L109.772 19.416C109.708 19.7787 109.57 20.0933 109.356 20.36C109.154 20.616 108.892 20.8187 108.572 20.968C108.252 21.1067 107.884 21.176 107.468 21.176ZM117.575 21.176C116.839 21.176 116.22 21.0533 115.719 20.808C115.228 20.5627 114.86 20.2053 114.615 19.736C114.38 19.2667 114.263 18.6747 114.263 17.96V14.952H113.591C113.292 14.952 113.057 14.872 112.887 14.712C112.727 14.552 112.647 14.3333 112.647 14.056C112.647 13.7573 112.727 13.5333 112.887 13.384C113.057 13.224 113.292 13.144 113.591 13.144H114.263V11.928C114.263 11.5227 114.369 11.2187 114.583 11.016C114.796 10.8027 115.095 10.696 115.479 10.696C115.873 10.696 116.172 10.8027 116.375 11.016C116.577 11.2187 116.679 11.5227 116.679 11.928V13.144H118.199C118.497 13.144 118.727 13.224 118.887 13.384C119.047 13.5333 119.127 13.7573 119.127 14.056C119.127 14.3333 119.047 14.552 118.887 14.712C118.727 14.872 118.497 14.952 118.199 14.952H116.679V17.864C116.679 18.312 116.78 18.648 116.983 18.872C117.196 19.096 117.532 19.208 117.991 19.208C118.151 19.208 118.3 19.192 118.439 19.16C118.577 19.128 118.705 19.1067 118.823 19.096C118.972 19.0853 119.095 19.1333 119.191 19.24C119.287 19.336 119.335 19.5547 119.335 19.896C119.335 20.152 119.292 20.376 119.207 20.568C119.121 20.76 118.972 20.8987 118.759 20.984C118.62 21.0373 118.428 21.08 118.183 21.112C117.948 21.1547 117.745 21.176 117.575 21.176ZM123.933 21.176C123.08 21.176 122.333 21.0107 121.693 20.68C121.064 20.3387 120.579 19.8587 120.237 19.24C119.896 18.6213 119.725 17.8907 119.725 17.048C119.725 16.4187 119.821 15.8533 120.013 15.352C120.205 14.8507 120.483 14.424 120.845 14.072C121.219 13.72 121.667 13.4533 122.189 13.272C122.712 13.08 123.293 12.984 123.933 12.984C124.264 12.984 124.616 13.0267 124.989 13.112C125.363 13.1867 125.731 13.32 126.093 13.512C126.307 13.608 126.451 13.7467 126.525 13.928C126.611 14.0987 126.643 14.28 126.621 14.472C126.6 14.6533 126.531 14.8187 126.413 14.968C126.307 15.1067 126.168 15.2027 125.997 15.256C125.827 15.2987 125.635 15.2667 125.421 15.16C125.219 15.0427 125.005 14.9573 124.781 14.904C124.568 14.8507 124.365 14.824 124.173 14.824C123.853 14.824 123.571 14.8773 123.325 14.984C123.08 15.08 122.872 15.224 122.701 15.416C122.541 15.5973 122.413 15.8267 122.317 16.104C122.232 16.3813 122.189 16.7013 122.189 17.064C122.189 17.768 122.36 18.3227 122.701 18.728C123.053 19.1227 123.544 19.32 124.173 19.32C124.365 19.32 124.568 19.2987 124.781 19.256C124.995 19.2027 125.208 19.1173 125.421 19C125.635 18.8933 125.827 18.8667 125.997 18.92C126.168 18.9733 126.301 19.0747 126.397 19.224C126.504 19.3627 126.563 19.528 126.573 19.72C126.595 19.9013 126.563 20.0827 126.477 20.264C126.403 20.4347 126.264 20.568 126.061 20.664C125.699 20.8453 125.336 20.9733 124.973 21.048C124.611 21.1333 124.264 21.176 123.933 21.176ZM128.966 21.144C128.571 21.144 128.267 21.0373 128.054 20.824C127.851 20.6107 127.75 20.3067 127.75 19.912V10.808C127.75 10.4027 127.851 10.0987 128.054 9.896C128.267 9.68267 128.571 9.576 128.966 9.576C129.35 9.576 129.643 9.68267 129.846 9.896C130.059 10.0987 130.166 10.4027 130.166 10.808V14.616H129.942C130.187 14.0933 130.55 13.6933 131.03 13.416C131.521 13.128 132.075 12.984 132.694 12.984C133.323 12.984 133.841 13.1067 134.246 13.352C134.651 13.5867 134.955 13.9493 135.158 14.44C135.361 14.92 135.462 15.5333 135.462 16.28V19.912C135.462 20.3067 135.355 20.6107 135.142 20.824C134.939 21.0373 134.641 21.144 134.246 21.144C133.862 21.144 133.563 21.0373 133.35 20.824C133.147 20.6107 133.046 20.3067 133.046 19.912V16.392C133.046 15.848 132.945 15.4587 132.742 15.224C132.55 14.9787 132.251 14.856 131.846 14.856C131.334 14.856 130.923 15.016 130.614 15.336C130.315 15.656 130.166 16.0827 130.166 16.616V19.912C130.166 20.7333 129.766 21.144 128.966 21.144ZM138.434 17.528C138.188 17.528 137.996 17.4533 137.858 17.304C137.719 17.1547 137.634 16.936 137.602 16.648L137.09 11.176C137.036 10.696 137.127 10.312 137.362 10.024C137.596 9.72533 137.954 9.576 138.434 9.576C138.892 9.576 139.239 9.72533 139.474 10.024C139.708 10.312 139.799 10.696 139.746 11.176L139.234 16.648C139.202 16.936 139.116 17.1547 138.978 17.304C138.85 17.4533 138.668 17.528 138.434 17.528ZM138.434 21.08C138.007 21.08 137.666 20.952 137.41 20.696C137.164 20.44 137.042 20.1093 137.042 19.704C137.042 19.3093 137.164 18.9893 137.41 18.744C137.666 18.488 138.007 18.36 138.434 18.36C138.86 18.36 139.191 18.488 139.426 18.744C139.671 18.9893 139.794 19.3093 139.794 19.704C139.794 20.1093 139.671 20.44 139.426 20.696C139.191 20.952 138.86 21.08 138.434 21.08Z" fill="#C70039"/>
<rect x="0.5" y="0.5" width="156.4" height="31" rx="15.5" stroke="#C70039"/>
<defs>
<clipPath id="clip0_46_1176">
<rect width="12" height="12" fill="white" transform="translate(17.2 10)"/>
</clipPath>
<clipPath id="clip1_46_1176">
<rect width="12" height="12" fill="white" transform="translate(24.4 10)"/>
</clipPath>
</defs>
</svg>
