<svg width="36" height="36" viewBox="0 0 36 36" fill="none" xmlns="http://www.w3.org/2000/svg">
<path d="M17.3754 30.447L17.3664 30.4416L17.3322 30.4236C16.6219 30.0371 15.9243 29.6277 15.2406 29.196C13.6105 28.1703 12.0572 27.0273 10.593 25.776C7.28101 22.9194 3.60001 18.6336 3.60001 13.5C3.60017 11.825 4.11958 10.1913 5.08672 8.82375C6.05386 7.45621 7.42117 6.42212 9.00037 5.86388C10.5796 5.30563 12.293 5.25067 13.9047 5.70658C15.5165 6.16249 16.9472 7.10683 18 8.40959C19.0528 7.10683 20.4836 6.16249 22.0953 5.70658C23.707 5.25067 25.4204 5.30563 26.9996 5.86388C28.5788 6.42212 29.9462 7.45621 30.9133 8.82375C31.8804 10.1913 32.3998 11.825 32.4 13.5C32.4 18.6336 28.7208 22.9194 25.407 25.776C23.3268 27.5533 21.0684 29.1108 18.6678 30.4236L18.6336 30.4416L18.6246 30.447H18.621C18.4298 30.5483 18.2167 30.6014 18.0002 30.6017C17.7838 30.6021 17.5706 30.5496 17.379 30.4488L17.3754 30.447Z" fill="#FFE1EA"/>
</svg>
