<svg width="36" height="36" viewBox="0 0 36 36" fill="none" xmlns="http://www.w3.org/2000/svg">
<path d="M16.8665 31.3085L16.8759 31.3135L16.8939 31.3243L16.924 31.3393C17.2568 31.5122 17.6265 31.6023 18.0017 31.6017C18.2868 31.6013 18.5686 31.5486 18.8333 31.447H18.9017L19.1242 31.3135L19.1335 31.3085L19.1406 31.3048L19.1476 31.301C21.6087 29.9551 23.924 28.3584 26.0566 26.5363L26.0599 26.5334C29.4114 23.6443 33.4 19.1006 33.4 13.5V13.4999C33.3998 11.6181 32.8163 9.78271 31.7297 8.24634C30.6432 6.70997 29.1071 5.54822 27.3329 4.92105C25.5588 4.29388 23.6338 4.23214 21.8231 4.74434C20.383 5.15169 19.0715 5.90613 18 6.93416C16.9285 5.90613 15.617 5.15169 14.1769 4.74434C12.3662 4.23214 10.4412 4.29388 8.66708 4.92105C6.89291 5.54822 5.3568 6.70997 4.27026 8.24634C3.18372 9.78271 2.60018 11.6181 2.60001 13.4999V13.5C2.60001 19.1007 6.59058 23.6445 9.93987 26.5332L9.94332 26.5362C11.4442 27.8188 13.0364 28.9905 14.7074 30.042C15.4092 30.4851 16.1252 30.9053 16.8543 31.302L16.8542 31.3021L16.8665 31.3085Z" fill="#A62D82" stroke="white" stroke-width="2"/>
</svg>
