<svg width="36" height="36" viewBox="0 0 36 36" fill="none" xmlns="http://www.w3.org/2000/svg">
<path fill-rule="evenodd" clip-rule="evenodd" d="M7.87501 13.5C7.87501 10.8147 8.94174 8.23935 10.8405 6.34054C12.7394 4.44174 15.3147 3.375 18 3.375C20.6853 3.375 23.2607 4.44174 25.1595 6.34054C27.0583 8.23935 28.125 10.8147 28.125 13.5V14.625C28.125 17.8095 29.325 20.7105 31.302 22.905C31.4252 23.0415 31.513 23.2061 31.5578 23.3843C31.6026 23.5626 31.6031 23.7492 31.5591 23.9277C31.5152 24.1062 31.4281 24.2712 31.3057 24.4083C31.1832 24.5453 31.029 24.6503 30.8565 24.714C28.5405 25.569 26.1165 26.199 23.61 26.5785C23.6664 27.3497 23.5633 28.1243 23.3069 28.8538C23.0505 29.5834 22.6465 30.2522 22.1201 30.8186C21.5936 31.385 20.956 31.8368 20.2471 32.1457C19.5382 32.4546 18.7733 32.614 18 32.614C17.2267 32.614 16.4618 32.4546 15.7529 32.1457C15.044 31.8368 14.4064 31.385 13.8799 30.8186C13.3535 30.2522 12.9495 29.5834 12.6931 28.8538C12.4368 28.1243 12.3336 27.3497 12.39 26.5785C9.91748 26.2038 7.48949 25.5786 5.14351 24.7125C4.97121 24.6489 4.8171 24.5441 4.69465 24.4072C4.57219 24.2703 4.48512 24.1055 4.44103 23.9272C4.39693 23.7489 4.39716 23.5625 4.4417 23.3843C4.48623 23.2062 4.57371 23.0416 4.69651 22.905C6.74672 20.635 7.87962 17.6838 7.87501 14.625V13.5ZM14.628 26.85C14.6088 27.3048 14.6818 27.7588 14.8426 28.1846C15.0034 28.6104 15.2487 28.9993 15.5637 29.3279C15.8787 29.6565 16.257 29.918 16.6757 30.0966C17.0943 30.2752 17.5448 30.3673 18 30.3673C18.4552 30.3673 18.9057 30.2752 19.3244 30.0966C19.743 29.918 20.1213 29.6565 20.4363 29.3279C20.7513 28.9993 20.9966 28.6104 21.1574 28.1846C21.3182 27.7588 21.3912 27.3048 21.372 26.85C19.1285 27.0521 16.8715 27.0521 14.628 26.85Z" fill="#FFB1C8"/>
</svg>
