<svg width="36" height="36" viewBox="0 0 36 36" fill="none" xmlns="http://www.w3.org/2000/svg">
<path d="M18.567 2.403C18.3949 2.30258 18.1992 2.24966 18 2.24966C17.8008 2.24966 17.6051 2.30258 17.433 2.403L4.5 9.948L18 17.823L31.5 9.948L18.567 2.403ZM32.625 11.895L19.125 19.77V33.27L32.067 25.722C32.2369 25.6229 32.3778 25.481 32.4757 25.3104C32.5736 25.1399 32.6251 24.9467 32.625 24.75V11.895ZM16.875 33.27V19.77L3.375 11.895V24.75C3.37494 24.9467 3.42643 25.1399 3.52434 25.3104C3.62225 25.481 3.76315 25.6229 3.933 25.722L16.875 33.2715V33.27Z" fill="#FFE1EA"/>
</svg>
