<svg width="36" height="36" viewBox="0 0 36 36" fill="none" xmlns="http://www.w3.org/2000/svg">
<path d="M28.764 3.24722C28.6814 2.84032 28.4606 2.47449 28.1391 2.21173C27.8176 1.94896 27.4152 1.80542 27 1.80542C26.5848 1.80542 26.1823 1.94896 25.8609 2.21173C25.5394 2.47449 25.3186 2.84032 25.236 3.24722L24.804 5.39282C24.7345 5.74135 24.5634 6.06152 24.3123 6.31297C24.0612 6.56443 23.7412 6.73592 23.3928 6.80582L21.2472 7.23422C20.8383 7.31508 20.4702 7.53532 20.2056 7.85735C19.941 8.17938 19.7964 8.58324 19.7964 9.00002C19.7964 9.41681 19.941 9.82067 20.2056 10.1427C20.4702 10.4647 20.8383 10.685 21.2472 10.7658L23.3928 11.1942C23.7416 11.2638 24.0619 11.4352 24.3134 11.6866C24.5649 11.9381 24.7362 12.2585 24.8058 12.6072L25.2342 14.7528C25.3151 15.1617 25.5353 15.5298 25.8573 15.7944C26.1793 16.059 26.5832 16.2036 27 16.2036C27.4168 16.2036 27.8206 16.059 28.1427 15.7944C28.4647 15.5298 28.6849 15.1617 28.7658 14.7528L29.1942 12.6072C29.2638 12.2585 29.4351 11.9381 29.6866 11.6866C29.9381 11.4352 30.2584 11.2638 30.6072 11.1942L32.7528 10.7658C33.1617 10.685 33.5298 10.4647 33.7944 10.1427C34.0589 9.82067 34.2036 9.41681 34.2036 9.00002C34.2036 8.58324 34.0589 8.17938 33.7944 7.85735C33.5298 7.53532 33.1617 7.31508 32.7528 7.23422L30.6072 6.80582C30.2584 6.73624 29.9381 6.56489 29.6866 6.31341C29.4351 6.06193 29.2638 5.74159 29.1942 5.39282L28.7658 3.24722H28.764ZM12.5082 10.2312C12.389 9.87241 12.1598 9.56025 11.8532 9.33901C11.5466 9.11778 11.1781 8.99872 10.8 8.99872C10.4219 8.99872 10.0534 9.11778 9.74678 9.33901C9.44017 9.56025 9.211 9.87241 9.09179 10.2312L7.86239 13.923C7.77406 14.1884 7.62509 14.4296 7.42731 14.6273C7.22953 14.8251 6.98838 14.9741 6.72299 15.0624L3.03119 16.2918C2.67238 16.411 2.36021 16.6402 2.13898 16.9468C1.91775 17.2534 1.79869 17.6219 1.79869 18C1.79869 18.3781 1.91775 18.7466 2.13898 19.0532C2.36021 19.3599 2.67238 19.589 3.03119 19.7082L6.72299 20.9394C6.98819 21.0276 7.22921 21.1763 7.42698 21.3737C7.62475 21.5712 7.77382 21.812 7.86239 22.077L9.09179 25.7688C9.211 26.1276 9.44017 26.4398 9.74678 26.661C10.0534 26.8823 10.4219 27.0013 10.8 27.0013C11.1781 27.0013 11.5466 26.8823 11.8532 26.661C12.1598 26.4398 12.389 26.1276 12.5082 25.7688L13.7376 22.077C13.8259 21.8116 13.9749 21.5705 14.1727 21.3727C14.3705 21.1749 14.6116 21.026 14.877 20.9376L18.5688 19.7082C18.9276 19.589 19.2398 19.3599 19.461 19.0532C19.6822 18.7466 19.8013 18.3781 19.8013 18C19.8013 17.6219 19.6822 17.2534 19.461 16.9468C19.2398 16.6402 18.9276 16.411 18.5688 16.2918L14.877 15.0624C14.6116 14.9741 14.3705 14.8251 14.1727 14.6273C13.9749 14.4296 13.8259 14.1884 13.7376 13.923L12.51 10.2312H12.5082ZM25.1082 24.6312C24.989 24.2724 24.7598 23.9602 24.4532 23.739C24.1466 23.5178 23.7781 23.3987 23.4 23.3987C23.0219 23.3987 22.6534 23.5178 22.3468 23.739C22.0402 23.9602 21.811 24.2724 21.6918 24.6312L21.3606 25.623C21.2724 25.8882 21.1237 26.1292 20.9263 26.327C20.7288 26.5248 20.488 26.6739 20.223 26.7624L19.2312 27.0918C18.8724 27.211 18.5602 27.4402 18.339 27.7468C18.1178 28.0534 17.9987 28.4219 17.9987 28.8C17.9987 29.1781 18.1178 29.5466 18.339 29.8532C18.5602 30.1599 18.8724 30.389 19.2312 30.5082L20.223 30.8376C20.4884 30.926 20.7295 31.0749 20.9273 31.2727C21.1251 31.4705 21.2741 31.7116 21.3624 31.977L21.6918 32.9688C21.811 33.3276 22.0402 33.6398 22.3468 33.861C22.6534 34.0823 23.0219 34.2013 23.4 34.2013C23.7781 34.2013 24.1466 34.0823 24.4532 33.861C24.7598 33.6398 24.989 33.3276 25.1082 32.9688L25.4394 31.977C25.5275 31.7118 25.6762 31.4708 25.8737 31.273C26.0711 31.0753 26.3119 30.9262 26.577 30.8376L27.5688 30.5082C27.9276 30.389 28.2398 30.1599 28.461 29.8532C28.6822 29.5466 28.8013 29.1781 28.8013 28.8C28.8013 28.4219 28.6822 28.0534 28.461 27.7468C28.2398 27.4402 27.9276 27.211 27.5688 27.0918L26.577 26.7606C26.3118 26.6725 26.0708 26.5238 25.873 26.3263C25.6752 26.1289 25.5262 25.8881 25.4376 25.623L25.1082 24.6312Z" fill="#F3B984"/>
</svg>
