<svg width="36" height="36" viewBox="0 0 36 36" fill="none" xmlns="http://www.w3.org/2000/svg">
<path fill-rule="evenodd" clip-rule="evenodd" d="M11.25 9C11.25 7.20979 11.9612 5.4929 13.227 4.22703C14.4929 2.96116 16.2098 2.25 18 2.25C19.7902 2.25 21.5071 2.96116 22.773 4.22703C24.0388 5.4929 24.75 7.20979 24.75 9C24.75 10.7902 24.0388 12.5071 22.773 13.773C21.5071 15.0388 19.7902 15.75 18 15.75C16.2098 15.75 14.4929 15.0388 13.227 13.773C11.9612 12.5071 11.25 10.7902 11.25 9ZM5.62651 30.1575C5.67709 26.9092 7.00297 23.8111 9.31795 21.5319C11.6329 19.2527 14.7513 17.9752 18 17.9752C21.2487 17.9752 24.3671 19.2527 26.6821 21.5319C28.997 23.8111 30.3229 26.9092 30.3735 30.1575C30.3774 30.3762 30.3175 30.5913 30.2011 30.7764C30.0846 30.9616 29.9168 31.1088 29.718 31.2C26.0418 32.8856 22.0442 33.7555 18 33.75C13.821 33.75 9.85051 32.838 6.28201 31.2C6.08324 31.1088 5.91537 30.9616 5.79895 30.7764C5.68253 30.5913 5.6226 30.3762 5.62651 30.1575Z" fill="#FFE1EA"/>
</svg>
