<svg width="36" height="36" viewBox="0 0 36 36" fill="none" xmlns="http://www.w3.org/2000/svg">
<path d="M5.21764 3.60757C5.02285 3.55108 4.81641 3.5483 4.62017 3.59952C4.42393 3.65074 4.24519 3.75406 4.10286 3.89854C3.96052 4.04303 3.8599 4.2233 3.81163 4.42029C3.76335 4.61727 3.76923 4.82365 3.82864 5.01757L7.47664 16.8751H20.2506C20.549 16.8751 20.8352 16.9936 21.0461 17.2046C21.2571 17.4156 21.3756 17.7017 21.3756 18.0001C21.3756 18.2984 21.2571 18.5846 21.0461 18.7956C20.8352 19.0065 20.549 19.1251 20.2506 19.1251H7.47664L3.82864 30.9826C3.76923 31.1765 3.76335 31.3829 3.81163 31.5798C3.8599 31.7768 3.96052 31.9571 4.10286 32.1016C4.24519 32.2461 4.42393 32.3494 4.62017 32.4006C4.81641 32.4518 5.02285 32.4491 5.21764 32.3926C15.1401 29.507 24.497 24.9485 32.8851 18.9136C33.0301 18.8094 33.1482 18.6722 33.2296 18.5134C33.311 18.3545 33.3535 18.1786 33.3535 18.0001C33.3535 17.8216 33.311 17.6456 33.2296 17.4868C33.1482 17.3279 33.0301 17.1908 32.8851 17.0866C24.4971 11.0515 15.1401 6.49304 5.21764 3.60757Z" fill="#9AA1B9"/>
</svg>
