<svg width="36" height="36" viewBox="0 0 36 36" fill="none" xmlns="http://www.w3.org/2000/svg">
<path fill-rule="evenodd" clip-rule="evenodd" d="M18 32.4C21.8191 32.4 25.4818 30.8829 28.1823 28.1823C30.8829 25.4818 32.4 21.8191 32.4 18C32.4 14.1809 30.8829 10.5182 28.1823 7.81767C25.4818 5.11714 21.8191 3.60001 18 3.60001C14.1809 3.60001 10.5182 5.11714 7.81767 7.81767C5.11714 10.5182 3.60001 14.1809 3.60001 18C3.60001 21.8191 5.11714 25.4818 7.81767 28.1823C10.5182 30.8829 14.1809 32.4 18 32.4ZM24.6726 15.6726C25.0005 15.3331 25.1819 14.8784 25.1778 14.4065C25.1737 13.9345 24.9844 13.4831 24.6507 13.1493C24.3169 12.8156 23.8655 12.6263 23.3935 12.6222C22.9216 12.6181 22.4669 12.7995 22.1274 13.1274L16.2 19.0548L13.8726 16.7274C13.5331 16.3995 13.0784 16.2181 12.6065 16.2222C12.1345 16.2263 11.6831 16.4156 11.3493 16.7493C11.0156 17.0831 10.8263 17.5345 10.8222 18.0065C10.8181 18.4784 10.9995 18.9331 11.3274 19.2726L14.9274 22.8726C15.265 23.2101 15.7227 23.3996 16.2 23.3996C16.6773 23.3996 17.1351 23.2101 17.4726 22.8726L24.6726 15.6726Z" fill="#D19477"/>
</svg>
