<svg width="48" height="48" viewBox="0 0 48 48" fill="none" xmlns="http://www.w3.org/2000/svg">
<rect width="48" height="48" rx="24" fill="#A62D82"/>
<path d="M31.7626 19.1539C31.1795 19.4118 30.561 19.5813 29.9278 19.6565C30.5952 19.2573 31.0948 18.6291 31.3333 17.8889C30.7069 18.2617 30.0202 18.5229 29.3044 18.6642C28.8237 18.1498 28.1864 17.8086 27.4917 17.6938C26.797 17.5789 26.0838 17.6968 25.463 18.029C24.8423 18.3613 24.3486 18.8893 24.0589 19.5311C23.7692 20.1728 23.6996 20.8923 23.861 21.5777C22.5907 21.514 21.348 21.1839 20.2136 20.6088C19.0792 20.0337 18.0784 19.2265 17.2762 18.2395C16.9923 18.7272 16.8431 19.2816 16.8439 19.846C16.8439 20.9536 17.4076 21.9321 18.2647 22.5051C17.7575 22.4891 17.2615 22.3521 16.8179 22.1055V22.1453C16.8181 22.883 17.0733 23.5979 17.5404 24.1689C18.0075 24.7398 18.6577 25.1317 19.3808 25.278C18.9099 25.4056 18.4162 25.4244 17.937 25.333C18.1409 25.9679 18.5382 26.5233 19.0734 26.9212C19.6085 27.3191 20.2547 27.5397 20.9215 27.5521C20.2588 28.0725 19.5001 28.4573 18.6886 28.6843C17.8771 28.9113 17.0288 28.9762 16.1923 28.8751C17.6526 29.8143 19.3526 30.3129 21.0888 30.3112C26.9654 30.3112 30.1791 25.443 30.1791 21.221C30.1791 21.0835 30.1753 20.9444 30.1692 20.8085C30.7947 20.3564 31.3346 19.7963 31.7634 19.1546L31.7626 19.1539Z" fill="white"/>
</svg>
