<svg width="40" height="10" viewBox="0 0 40 10" fill="none" xmlns="http://www.w3.org/2000/svg">
<g id="Group">
<path id="Vector" d="M15.177 0.50045L9.94239 9.5462H6.51852L3.95062 2.31437C3.78601 1.86089 3.65432 1.71769 3.19342 1.52675C2.17914 1.17284 1.10566 0.916097 0 0.762992L0.0658436 0.50045H5.56379C6.30694 0.502882 6.93632 0.898326 7.04527 1.43128L8.39506 6.65824L11.7531 0.50045H15.177ZM28.5761 6.58664C28.5761 4.1999 24.0329 4.0567 24.0658 3.00653C24.0658 2.67239 24.4938 2.33824 25.4486 2.24277C26.5439 2.16862 27.6467 2.30874 28.642 2.64852L29.2016 0.739124C28.235 0.470037 27.2083 0.332488 26.1728 0.333378C22.9794 0.333378 20.7407 1.57448 20.7078 3.31681C20.6749 4.62951 22.321 5.34554 23.5391 5.77515C24.7572 6.20476 25.2181 6.51504 25.2181 6.89692C25.2181 7.4936 24.1975 7.78001 23.2757 7.78001C22.1173 7.80323 20.9708 7.60571 19.9506 7.20719L19.358 9.18819C20.498 9.51991 21.7183 9.68224 22.9465 9.66554C26.3374 9.68941 28.5432 8.47217 28.5761 6.58664ZM37.0041 9.5462H40L37.3992 0.50045H34.6337C34.0268 0.495179 33.4777 0.760571 33.251 1.16874L28.3786 9.5462H31.7695L32.428 8.18576H36.5761L37.0041 9.5462ZM33.3827 6.34797L35.0947 2.95879L36.0823 6.34797H33.3827ZM19.786 0.50045L17.1193 9.5462H13.893L16.5597 0.50045H19.786Z" fill="#1A1F71"/>
</g>
</svg>
