<svg width="10" height="10" viewBox="0 0 10 10" fill="none" xmlns="http://www.w3.org/2000/svg">
<path id="Vector" d="M7.73534 9.22569L7.73187 9.22615L7.72041 9.22661C7.65323 9.22905 7.58604 9.23054 7.51888 9.23108C6.70945 9.2342 5.90473 9.15349 5.11807 8.9903C3.72123 8.6949 2.03873 8.03119 1.16671 6.5208C0.516029 5.39379 0.984887 3.93141 2.17361 3.2451C2.50316 3.05276 2.87026 2.93442 3.24761 2.89888C3.62495 2.86335 4.00283 2.91154 4.35314 3.03986C4.41717 2.67225 4.56443 2.32083 4.78395 2.01177C5.00346 1.7027 5.2896 1.44393 5.62105 1.25472C6.80937 0.568643 8.31026 0.893788 8.96094 2.0208C9.83319 3.53158 9.56673 5.32052 9.12368 6.67715C8.8717 7.44001 8.53924 8.17727 8.1318 8.8767C8.09783 8.93472 8.06302 8.99229 8.02738 9.04938L8.02126 9.05907L8.01935 9.06223L8.01837 9.0633C7.98779 9.11044 7.94616 9.14988 7.89711 9.1782C7.84807 9.20652 7.79309 9.22285 7.73698 9.22577L7.73556 9.22607L7.73534 9.22569Z" fill="#F4EBF2"/>
</svg>
